# xmcd CD Database Entry
#
# Track frame offsets:
# 150
# 22580
# 42405
#
# Disc length: 864 seconds
#
# Revision: 2
# Processed by: cddbd v1.5.2PL0 Copyright (c) Steve Scherf et al.
# Submitted via: tcd 2.0b
#
DISCID=16035e03
DTITLE=三浦綺音/家族の肖像(single)
DYEAR=1900
DGENRE=
TTITLE0=家族の肖像
TTITLE1=殺意の記念日
TTITLE2=家族の肖像(karaoke)
EXTD=SXDR-123
EXTT0=作詞：石川あゆ子\n作・編曲：Edison\n
EXTT1=作詞：石川あゆ子\n作・編曲：Edison\n
EXTT2=
PLAYORDER=
